<?xml version="1.0" encoding="UTF-8"?>
<svg version="1.1" xmlns="http://www.w3.org/2000/svg" x="0px" y="0px"
	 viewBox="0 0 1024 1024" style="enable-background:new 0 0 1024 1024;" xml:space="preserve">
<path d="M0 0 C0.78761719 0.73347656 1.57523437 1.46695313 2.38671875 2.22265625 C4.20642569 3.99313939 4.20642569 3.99313939 6.3125 4.9375 C4.75266024 9.0611863 2.84086435 12.95905045 0.8203125 16.87109375 C0.47816711 17.53742325 0.13602173 18.20375275 -0.2164917 18.89027405 C-1.32879741 21.05342684 -2.44509026 23.21447971 -3.5625 25.375 C-3.942995 26.11137695 -4.32348999 26.84775391 -4.71551514 27.60644531 C-9.52721978 36.91162084 -14.35386574 46.20961055 -19.3125 55.4375 C-19.75964355 56.2823999 -20.20678711 57.1272998 -20.66748047 57.99780273 C-25.96058533 67.73604955 -31.79567542 76.30689181 -42.6875 79.9375 C-58.40187501 81.19878536 -68.08042992 75.92757559 -80.953125 67.875 C-120.80158273 43.00642933 -165.73601662 29.58253923 -212.6875 39.9375 C-227.91102412 43.89097752 -241.70303188 49.56096589 -253.6875 59.9375 C-254.43902344 60.58203125 -255.19054687 61.2265625 -255.96484375 61.890625 C-268.11937137 73.11018895 -275.85752995 90.53265202 -276.81030273 107.06884766 C-277.44153484 125.71417789 -275.08051752 141.39792056 -262.5625 156.125 C-238.75041682 180.94096527 -203.97857788 190.82148036 -172.21826172 201.1159668 C-30.12871315 247.24092637 -30.12871315 247.24092637 2.62426758 311.11767578 C24.77556434 356.04622154 20.99666539 412.55317594 5.80004883 458.98266602 C2.45694188 468.73946638 -1.75966984 477.88921079 -6.6875 486.9375 C-7.00831543 487.53755859 -7.32913086 488.13761719 -7.65966797 488.75585938 C-14.69058349 501.85357299 -22.9945851 513.54228611 -33.22265625 524.3203125 C-35.19393295 526.41342722 -37.0536256 528.5288117 -38.875 530.75 C-42.13144877 534.57518067 -45.81407351 537.7501877 -49.6875 540.9375 C-50.66332031 541.75089844 -51.63914062 542.56429687 -52.64453125 543.40234375 C-103.24343609 584.83790572 -169.56218759 597.41978331 -233.50390625 591.72265625 C-301.11522494 584.77178694 -367.48199875 557.70879351 -415.6875 508.9375 C-414.14724378 503.18473579 -411.22543316 498.65708325 -408.0625 493.6875 C-406.88993159 491.82205026 -405.71809139 489.95614264 -404.546875 488.08984375 C-403.92361328 487.09968262 -403.30035156 486.10952148 -402.65820312 485.08935547 C-400.59005579 481.78165204 -398.54830544 478.45845547 -396.515625 475.12890625 C-396.16557404 474.55629059 -395.81552307 473.98367493 -395.4548645 473.39370728 C-393.74498744 470.59649342 -392.03745116 467.79789652 -390.33349609 464.99707031 C-375.01814904 439.99226305 -375.01814904 439.99226305 -359.6875 435.9375 C-346.00953722 433.96915881 -335.43084827 440.28633315 -324.6875 447.9375 C-313.9269364 455.32474915 -302.93022119 462.3075746 -291.6875 468.9375 C-291.07503418 469.30085449 -290.46256836 469.66420898 -289.83154297 470.03857422 C-273.05630434 479.862929 -253.94142776 487.85535738 -234.6875 490.9375 C-233.63046875 491.11047607 -232.5734375 491.28345215 -231.484375 491.46166992 C-221.59408268 492.94009539 -211.92124052 493.30032273 -201.9375 493.25 C-201.14624725 493.24751251 -200.35499451 493.24502502 -199.5397644 493.24246216 C-174.64982291 493.12156555 -150.76585801 489.07207601 -129.6875 474.9375 C-128.800625 474.34582031 -127.91375 473.75414062 -127 473.14453125 C-109.51206365 460.32915289 -100.92655766 440.52406139 -97.10546875 419.77734375 C-95.0068905 400.49788186 -95.02375113 379.3441841 -106.6875 362.9375 C-132.23320631 331.35223373 -171.95834702 321.17045597 -209.3125 310.0625 C-323.44333555 276.09535808 -323.44333555 276.09535808 -357.6875 230.9375 C-358.28046875 230.16019531 -358.8734375 229.38289063 -359.484375 228.58203125 C-381.826703 197.98943993 -389.90479778 161.85092247 -389.9375 124.5 C-389.93851212 123.44977158 -389.93851212 123.44977158 -389.93954468 122.37832642 C-389.92126966 110.36446842 -389.16625855 98.71648257 -386.6875 86.9375 C-386.52121094 86.14666016 -386.35492188 85.35582031 -386.18359375 84.54101562 C-380.64404641 59.32581679 -369.46521598 35.34368696 -353.6875 14.9375 C-353.00558594 14.03257812 -352.32367188 13.12765625 -351.62109375 12.1953125 C-336.10051281 -7.65453865 -316.75078388 -23.11307984 -294.6875 -35.0625 C-294.03990723 -35.41650879 -293.39231445 -35.77051758 -292.72509766 -36.13525391 C-211.56150969 -80.02249216 -96.59823468 -69.00089562 0 0 Z " fill="#FFFFFF" transform="translate(431.6875,270.0625)"/>
<path d="M0 0 C166.65 0 333.3 0 505 0 C505 32.67 505 65.34 505 99 C441.31 99 377.62 99 312 99 C312 277.53 312 456.06 312 640 C272.4 640 232.8 640 192 640 C192 461.47 192 282.94 192 99 C128.64 99 65.28 99 0 99 C0 66.33 0 33.66 0 0 Z " fill="#FFFFFF" transform="translate(494,215)"/>
</svg>
